<?xml version="1.0" encoding="UTF-8" standalone="no"?><!DOCTYPE svg PUBLIC "-//W3C//DTD SVG 1.1//EN" "http://www.w3.org/Graphics/SVG/1.1/DTD/svg11.dtd"><svg width="100%" height="100%" viewBox="0 0 1378 2048" version="1.1" xmlns="http://www.w3.org/2000/svg" xmlns:xlink="http://www.w3.org/1999/xlink" xml:space="preserve" xmlns:serif="http://www.serif.com/" style="fill-rule:evenodd;clip-rule:evenodd;stroke-linejoin:round;stroke-miterlimit:2;"><rect id="Fit" x="0" y="0" width="1378" height="2048" style="fill:none;"/><g id="Icon"><g id="Bottom-Side"><path d="M1081.514,537.513l-36.943,-5.541l0,27.707l-9.236,27.707l0,452.546l27.676,36.943l18.502,-9.236l-18.471,-83.121l36.943,0l18.471,27.707l25.86,-27.707l0,55.414l24.013,22.166l22.166,0l0,304.776l9.236,0l0,132.993l-81.274,60.955l0,125.633l18.471,0l0,120.035l53.567,9.236l0,64.649l81.274,0l0,-46.178l73.885,9.236l31.401,-175.477l-14.777,-230.891l-12.93,-14.777l-86.815,0l0,-105.286l9.236,-16.624l0,-286.304l9.236,-11.083l0,-120.072l-9.236,-27.698l-81.274,-27.707l-46.178,9.236l0,46.178l-62.802,9.236l0,-354.648Z"/><path d="M296.486,537.513l36.943,-5.541l0,27.707l9.236,27.707l0,452.546l-27.676,36.943l-18.502,-9.236l18.471,-83.121l-36.943,0l-18.471,27.707l-25.86,-27.707l0,55.414l-24.013,22.166l-22.166,0l0,304.776l-9.236,0l0,132.993l81.274,60.955l0,125.633l-18.471,0l0,120.035l-53.567,9.236l0,64.649l-81.274,0l0,-46.178l-73.885,9.236l-31.401,-175.477l14.777,-230.891l12.93,-14.777l86.815,0l0,-105.286l-9.236,-16.624l0,-286.304l-9.236,-11.083l0,-120.072l9.236,-27.698l81.274,-27.707l46.178,9.236l0,46.178l62.802,9.236l0,-354.648Z"/></g><g id="Bottom-Center"><path d="M942.951,1835.609l0,129.27l-92.327,83.121l184.713,-36.943l0,18.471l83.121,0.043l0,-27.75l27.707,0l9.236,-18.471l-46.178,-27.707l0,-120.035l-18.471,0l0,-674.229l-18.471,-27.707l-36.943,0l18.471,83.121l-18.471,9.236l0,507.959l-9.236,27.707l-55.414,0l-9.236,-18.471l0,92.385l-18.5,0Z"/><path d="M435.049,1835.609l0,129.27l92.327,83.121l-184.713,-36.943l0,18.471l-83.121,0.043l0,-27.75l-27.707,0l-9.236,-18.471l46.178,-27.707l0,-120.035l18.471,0l0,-674.229l18.471,-27.707l36.943,0l-18.471,83.121l18.471,9.236l0,507.959l9.236,27.707l55.414,0l9.236,-18.471l0,92.385l18.5,0Z"/></g><g id="Center-Bottom" serif:id="Center Bottom"><path d="M993.776,1099.08l-101.592,-92.397l-18.471,0.041l-27.707,22.166l-18.471,0l-18.471,33.229l0,295.559l-9.236,9.236l0,110.828l64.649,0l9.236,36.943l110.799,212.448l18.5,0l0,-609.58l-9.236,-18.471Z"/><path d="M384.224,1099.08l101.592,-92.397l18.471,0.041l27.707,22.166l18.471,0l18.471,33.229l0,295.559l9.236,9.236l0,110.828l-64.649,0l-9.236,36.943l-110.799,212.448l-18.5,0l0,-609.58l9.236,-18.471Z"/></g><path id="Center-Center" d="M689,1956.106l0.029,-1570.056l36.943,0l64.621,193.948l0,443.31l-27.707,22.166l-18.471,0l-18.471,33.248l0,295.54l-9.236,9.236l0,110.828l64.649,0l9.236,36.943l110.828,212.419l0,129.299l-92.356,83.121l-120.063,0Zm0,0l-120.063,0l-92.356,-83.121l0,-129.299l110.828,-212.419l9.236,-36.943l64.649,0l0,-110.828l-9.236,-9.236l0,-295.54l-18.471,-33.248l-18.471,0l-27.707,-22.166l0,-443.31l64.621,-193.948l36.943,0l0.029,1570.056Z"/><g id="Center-Top"><path d="M820.146,491.335l110.799,0l18.5,64.649l0,452.546l-9.236,18.471l-101.592,-92.356l-18.471,0l0,-443.31Z"/><path d="M557.854,491.335l-110.799,0l-18.5,64.649l0,452.546l9.236,18.471l101.592,-92.356l18.471,0l0,-443.31Z"/></g><g id="Top"><path d="M703.806,267.833l36.943,0l64.649,193.948l110.828,0l138.534,18.471l129.299,-175.477l0,-27.707l-203.184,-73.885l0,-18.471l-92.356,-138.534l-46.178,-36.943l-138.563,-9.236l0,55.414l138.563,9.236l4.623,64.649l-143.158,-9.236l0,147.77Z"/><path d="M674.194,267.833l-36.943,0l-64.649,193.948l-110.828,0l-138.534,18.471l-129.299,-175.477l0,-27.707l203.184,-73.885l0,-18.471l92.356,-138.534l46.178,-36.943l138.563,-9.236l0,55.414l-138.563,9.236l-4.623,64.649l143.158,-9.236l0,147.77Z"/></g></g></svg>